<mxfile host="app.diagrams.net" modified="2022-08-22T01:11:10.443Z" agent="5.0 (Windows NT 10.0; Win64; x64) AppleWebKit/537.36 (KHTML, like Gecko) Chrome/104.0.0.0 Safari/537.36" etag="yNvyf2mL6SnRdIphYf3f" version="20.2.3" type="github">
  <diagram id="K8FDDmurOGs8hEYQIHvI" name="Page-1">
    <mxGraphModel dx="1038" dy="513" grid="1" gridSize="10" guides="1" tooltips="1" connect="1" arrows="1" fold="1" page="1" pageScale="1" pageWidth="850" pageHeight="1100" math="0" shadow="0">
      <root>
        <mxCell id="0" />
        <mxCell id="1" parent="0" />
        <mxCell id="a-LYc8Nm40ma_EexxC2u-7" style="edgeStyle=orthogonalEdgeStyle;rounded=0;orthogonalLoop=1;jettySize=auto;html=1;" edge="1" parent="1" source="a-LYc8Nm40ma_EexxC2u-1" target="a-LYc8Nm40ma_EexxC2u-4">
          <mxGeometry relative="1" as="geometry" />
        </mxCell>
        <mxCell id="a-LYc8Nm40ma_EexxC2u-8" style="edgeStyle=orthogonalEdgeStyle;rounded=0;orthogonalLoop=1;jettySize=auto;html=1;" edge="1" parent="1" source="a-LYc8Nm40ma_EexxC2u-1" target="a-LYc8Nm40ma_EexxC2u-6">
          <mxGeometry relative="1" as="geometry" />
        </mxCell>
        <mxCell id="a-LYc8Nm40ma_EexxC2u-9" style="edgeStyle=orthogonalEdgeStyle;rounded=0;orthogonalLoop=1;jettySize=auto;html=1;entryX=0.5;entryY=0;entryDx=0;entryDy=0;" edge="1" parent="1" source="a-LYc8Nm40ma_EexxC2u-1" target="a-LYc8Nm40ma_EexxC2u-2">
          <mxGeometry relative="1" as="geometry" />
        </mxCell>
        <mxCell id="a-LYc8Nm40ma_EexxC2u-10" style="edgeStyle=orthogonalEdgeStyle;rounded=0;orthogonalLoop=1;jettySize=auto;html=1;" edge="1" parent="1" source="a-LYc8Nm40ma_EexxC2u-1" target="a-LYc8Nm40ma_EexxC2u-3">
          <mxGeometry relative="1" as="geometry" />
        </mxCell>
        <mxCell id="a-LYc8Nm40ma_EexxC2u-1" value="&lt;b&gt;Partition&lt;/b&gt;" style="rhombus;whiteSpace=wrap;html=1;fillColor=#ffe6cc;strokeColor=#d79b00;" vertex="1" parent="1">
          <mxGeometry x="385" y="80" width="80" height="80" as="geometry" />
        </mxCell>
        <mxCell id="a-LYc8Nm40ma_EexxC2u-2" value="Availiability" style="ellipse;whiteSpace=wrap;html=1;aspect=fixed;fillColor=#ffe6cc;strokeColor=#d79b00;" vertex="1" parent="1">
          <mxGeometry x="120" y="200" width="80" height="80" as="geometry" />
        </mxCell>
        <mxCell id="a-LYc8Nm40ma_EexxC2u-3" value="Consistency" style="ellipse;whiteSpace=wrap;html=1;aspect=fixed;fillColor=#e1d5e7;strokeColor=#9673a6;" vertex="1" parent="1">
          <mxGeometry x="240" y="200" width="80" height="80" as="geometry" />
        </mxCell>
        <mxCell id="a-LYc8Nm40ma_EexxC2u-4" value="Latency" style="ellipse;whiteSpace=wrap;html=1;aspect=fixed;fillColor=#d5e8d4;strokeColor=#82b366;" vertex="1" parent="1">
          <mxGeometry x="520" y="200" width="80" height="80" as="geometry" />
        </mxCell>
        <mxCell id="a-LYc8Nm40ma_EexxC2u-6" value="Consistency" style="ellipse;whiteSpace=wrap;html=1;aspect=fixed;fillColor=#dae8fc;strokeColor=#6c8ebf;" vertex="1" parent="1">
          <mxGeometry x="640" y="200" width="80" height="80" as="geometry" />
        </mxCell>
        <mxCell id="a-LYc8Nm40ma_EexxC2u-11" value="Yes" style="text;html=1;align=center;verticalAlign=middle;resizable=0;points=[];autosize=1;strokeColor=none;fillColor=none;" vertex="1" parent="1">
          <mxGeometry x="310" y="80" width="40" height="30" as="geometry" />
        </mxCell>
        <mxCell id="a-LYc8Nm40ma_EexxC2u-12" value="No" style="text;html=1;align=center;verticalAlign=middle;resizable=0;points=[];autosize=1;strokeColor=none;fillColor=none;" vertex="1" parent="1">
          <mxGeometry x="490" y="80" width="40" height="30" as="geometry" />
        </mxCell>
        <mxCell id="a-LYc8Nm40ma_EexxC2u-13" value="" style="strokeWidth=2;html=1;shape=mxgraph.flowchart.annotation_2;align=left;labelPosition=right;pointerEvents=1;rotation=-91;" vertex="1" parent="1">
          <mxGeometry x="400" y="39.99999999999999" width="50" height="551.74" as="geometry" />
        </mxCell>
        <mxCell id="a-LYc8Nm40ma_EexxC2u-14" value="&lt;b&gt;PACELE&lt;/b&gt;" style="text;html=1;align=center;verticalAlign=middle;resizable=0;points=[];autosize=1;strokeColor=none;fillColor=none;rounded=0;" vertex="1" parent="1">
          <mxGeometry x="390" y="340" width="70" height="30" as="geometry" />
        </mxCell>
      </root>
    </mxGraphModel>
  </diagram>
</mxfile>
